#!OML:ASF X:\für Bonn\!DataBase\2005_08_10_Bjorn_Final\c3d\bjorn.ASF
:FULLY-SPECIFIED
:DEGREES
346
root 6.75482 18.9294 -0.400714 354.063 -264.511 -365.175
lowerback -0.156539 0.633221 -5.16391
upperback 7.77483 1.88705 -5.41279
thorax 8.33308 0.972502 -2.67681
lowerneck -6.15448 -2.46252 0.867807
upperneck 15.2858 -3.28664 0.253719
head 5.61218 -1.45416 -0.273042
rclavicle 5.1684e-015 -3.18055e-015
rhumerus -38.2571 -13.7585 -89.6153
rradius 25.308
rwrist 5.97712
rhand -7.88871 11.8986
rfingers 7.12502
rthumb 18.0159 -17.287
lclavicle 5.1684e-015 -3.18055e-015
lhumerus -20.2326 -9.97327 88.7534
lradius 46.5865
lwrist -6.23538
lhand -12.2049 -2.42773
lfingers 7.12502
lthumb 13.8596 27.0905
rfemur -14.1221 -9.74413 14.5627
rtibia 51.7053
rfoot -14.7694 17.8599
rtoes -4.29483
lfemur 0.532061 1.80377 -18.2917
ltibia 26.2682
lfoot -19.3762 -8.87169
ltoes -3.80763
347
root 6.81521 18.9462 -0.406034 356.533 -264.538 -362.745
lowerback -0.206348 0.567414 -5.04526
upperback 7.76933 1.77419 -5.25498
thorax 8.34873 0.91308 -2.58256
lowerneck -5.92411 -2.37899 1.07012
upperneck 15.4168 -3.17037 0.15666
head 5.60887 -1.3885 -0.326524
rclavicle -1.39149e-014 -3.18055e-015
rhumerus -38.4891 -13.6017 -89.5069
rradius 25.4826
rwrist 5.51275
rhand -8.07776 11.7336
rfingers 7.12502
rthumb 17.834 -17.4687
lclavicle -1.39149e-014 -3.18055e-015
lhumerus -20.3644 -10.5372 89.1024
lradius 47.095
lwrist -8.58693
lhand -11.7122 -2.65751
lfingers 7.12502
lthumb 14.3343 26.8276
rfemur -15.1764 -10.1515 14.8605
rtibia 52.3462
rfoot -14.3037 18.595
rtoes -3.58247
lfemur 1.04372 1.90385 -18.0037
ltibia 25.5555
lfoot -19.216 -8.94916
ltoes -3.99589
348
root 6.87746 18.9661 -0.409832 359.048 -264.534 -360.269
lowerback -0.238874 0.491558 -4.9585
upperback 7.76304 1.64262 -5.05092
thorax 8.35091 0.839706 -2.42309
lowerneck -5.68185 -2.28655 1.16556
upperneck 15.5404 -3.03375 0.0965312
head 5.60391 -1.31629 -0.349606
rclavicle -4.37326e-015 -9.85972e-014
rhumerus -38.7185 -13.4159 -89.3232
rradius 25.6652
rwrist 5.12802
rhand -8.3199 11.4839
rfingers 7.12502
rthumb 17.601 -17.7394
lclavicle -4.37326e-015 -9.85972e-014
lhumerus -20.5426 -11.037 89.5169
lradius 47.6038
lwrist -10.947
lhand -11.4097 -2.84563
lfingers 7.12502
lthumb 14.6258 26.6186
rfemur -16.2114 -10.5419 15.1896
rtibia 52.8374
rfoot -14.0154 19.2177
rtoes -3.25585
lfemur 1.61547 2.01523 -17.6967
ltibia 24.7218
lfoot -18.9928 -9.05585
ltoes -4.2834
349
root 6.94272 18.9887 -0.414174 361.771 -264.538 -357.631
lowerback -0.320823 0.429942 -4.81879
upperback 7.74258 1.53112 -4.86108
thorax 8.36873 0.780166 -2.30658
lowerneck -5.47688 -2.20862 1.30039
upperneck 15.6824 -2.9228 0.0447773
head 5.61075 -1.25333 -0.379011
rclavicle -1.51076e-014 -7.95139e-015
rhumerus -38.934 -13.3594 -89.1018
rradius 25.7877
rwrist 4.8129
rhand -8.52108 11.272
rfingers 7.12502
rthumb 17.4074 -17.9685
lclavicle -1.51076e-014 -7.95139e-015
lhumerus -20.74 -11.4969 89.921
lradius 48.0517
lwrist -13.1244
lhand -11.2842 -3.09454
lfingers 7.12502
lthumb 14.7467 26.3609
rfemur -17.2617 -10.9166 15.5459
rtibia 53.1582
rfoot -13.9889 19.5103
rtoes -4.01789
lfemur 2.17782 2.14166 -17.3764
ltibia 23.8292
lfoot -18.7597 -9.16015
ltoes -4.52418
350
root 7.00846 19.0107 -0.418419 364.303 -264.542 -355.157
lowerback -0.357836 0.361955 -4.71128
upperback 7.73403 1.40832 -4.64584
thorax 8.37232 0.7122 -2.14679
lowerneck -5.28086 -2.1202 1.32732
upperneck 15.7921 -2.7958 0.0561535
head 5.6119 -1.18509 -0.369986
rclavicle 1.35174e-014 3.97569e-014
rhumerus -39.1154 -13.2513 -88.8603
rradius 25.9183
rwrist 4.45207
rhand -8.75385 10.9927
rfingers 7.12502
rthumb 17.1834 -18.2675
lclavicle 1.35174e-014 3.97569e-014
lhumerus -20.921 -11.8824 90.3495
lradius 48.477
lwrist -14.9669
lhand -11.221 -3.3634
lfingers 7.12502
lthumb 14.8076 26.0876
rfemur -18.2423 -11.2848 15.8857
rtibia 53.309
rfoot -14.2497 19.461
rtoes -5.97341
lfemur 2.76718 2.27478 -17.0716
ltibia 22.9569
lfoot -18.543 -9.25067
ltoes -4.83529
351
root 7.07495 19.0285 -0.421835 366.824 -264.526 -352.74
lowerback -0.451997 0.283377 -4.59189
upperback 7.73442 1.2767 -4.43568
thorax 8.42048 0.64067 -2.00001
lowerneck -5.19635 -2.02233 1.42686
upperneck 15.9331 -2.66154 0.0284192
head 5.6405 -1.11179 -0.38638
rclavicle 1.39149e-014 6.99722e-014
rhumerus -39.2281 -13.2997 -88.5577
rradius 25.968
rwrist 4.26728
rhand -9.00819 10.8066
rfingers 7.12502
rthumb 16.9386 -18.4747
lclavicle 1.39149e-014 6.99722e-014
lhumerus -21.0364 -12.2243 90.7446
lradius 48.8896
lwrist -16.4657
lhand -11.156 -3.68116
lfingers 7.12502
lthumb 14.8702 25.7652
rfemur -19.2 -11.6352 16.2404
rtibia 53.2733
rfoot -14.5599 19.3314
rtoes -7.21511
lfemur 3.27058 2.46092 -16.7494
ltibia 22.1443
lfoot -18.3103 -9.45412
ltoes -4.91513
352
root 7.1401 19.0361 -0.425601 369.513 -264.497 -350.146
lowerback -0.535837 0.210638 -4.44306
upperback 7.75666 1.15222 -4.21511
thorax 8.48731 0.574643 -1.85887
lowerneck -5.23256 -1.9422 1.60293
upperneck 16.1374 -2.55893 -0.026654
head 5.70832 -1.05052 -0.42775
rclavicle -3.57812e-015 -4.45278e-014
rhumerus -39.2612 -13.3643 -88.2497
rradius 25.978
rwrist 4.05042
rhand -9.2854 10.5801
rfingers 7.12502
rthumb 16.6717 -18.7239
lclavicle -3.57812e-015 -4.45278e-014
lhumerus -21.0636 -12.5802 91.1385
lradius 49.2597
lwrist -17.6457
lhand -11.1631 -4.12184
lfingers 7.12502
lthumb 14.8634 25.325
rfemur -20.0844 -11.9413 16.615
rtibia 53.0742
rfoot -14.8511 19.1776
rtoes -7.39211
lfemur 3.75144 2.63289 -16.4079
ltibia 21.3998
lfoot -18.0968 -9.64821
ltoes -4.80873
353
root 7.207 19.0429 -0.427946 371.983 -264.451 -347.799
lowerback -0.611098 0.13973 -4.30042
upperback 7.7377 1.02688 -4.01231
thorax 8.5047 0.508857 -1.73294
lowerneck -5.2596 -1.8586 1.85995
upperneck 16.3807 -2.45499 -0.106675
head 5.7858 -0.984265 -0.490292
rclavicle -1.23246e-014 3.49861e-014
rhumerus -39.375 -13.5234 -87.9125
rradius 25.9793
rwrist 3.90956
rhand -9.56174 10.4069
rfingers 7.12502
rthumb 16.4056 -18.9194
lclavicle -1.23246e-014 3.49861e-014
lhumerus -21.1447 -12.9999 91.5253
lradius 49.5791
lwrist -18.5287
lhand -11.4061 -4.56894
lfingers 7.12502
lthumb 14.6293 24.895
rfemur -20.9607 -12.2472 16.9817
rtibia 52.7153
rfoot -15.1943 18.9368
rtoes -7.65498
lfemur 4.18116 2.84372 -16.0711
ltibia 20.7059
lfoot -17.9344 -9.87904
ltoes -4.83918
354
root 7.27609 19.0508 -0.430699 374.45 -264.413 -345.445
lowerback -0.682829 0.0731357 -4.15963
upperback 7.73298 0.907194 -3.7917
thorax 8.53581 0.445116 -1.58728
lowerneck -5.32012 -1.77178 2.06765
upperneck 16.5913 -2.34604 -0.173014
head 5.86015 -0.918447 -0.540252
rclavicle -2.38542e-015 -1.59028e-015
rhumerus -39.4376 -13.6846 -87.5509
rradius 25.9358
rwrist 3.74171
rhand -9.84793 10.2239
rfingers 7.12502
rthumb 16.1301 -19.1249
lclavicle -2.38542e-015 -1.59028e-015
lhumerus -21.18 -13.4027 91.9412
lradius 49.8533
lwrist -19.1318
lhand -11.762 -5.06516
lfingers 7.12502
lthumb 14.2863 24.4234
rfemur -21.8286 -12.5115 17.3469
rtibia 52.2196
rfoot -15.5056 18.6216
rtoes -7.66842
lfemur 4.62741 3.06754 -15.725
ltibia 20.0161
lfoot -17.7227 -10.1841
ltoes -4.57211
